# xmcd
#
# Track frame offsets: 
#        150
#        13984
#        32038
#        46367
#        65778
#        78785
#        94025
#        115422
#        131109
#        152079
#        168320
#        188453
#
# Disc length: 2713 seconds
#
# Revision: 0
# Processed by: cddbd v1.5.2PL0 Copyright (c) Steve Scherf et al.
# Submitted via: ExactAudioCopy v0.99pb3
#
DISCID=9a0a970c
DTITLE=Roscoe Shelton - Save Me
DYEAR=2007
DGENRE=Blues
TTITLE0=Who Do You Think You Are
TTITLE1=It's My Fault
TTITLE2=A Step In The Right Direction
TTITLE3=Save Me
TTITLE4=Someday Things Are Gonna Change
TTITLE5=The Best Day Of My Life
TTITLE6=Blues At Midnight
TTITLE7=Why Didn't You Tell Me (For So Long)
TTITLE8=Think It Over
TTITLE9=Heat Up The Oven
TTITLE10=The Next Time (Excuse Me)
TTITLE11=He's Cool, She's Hot
EXTD=
EXTT0=
EXTT1=
EXTT2=
EXTT3=
EXTT4=
EXTT5=
EXTT6=
EXTT7=
EXTT8=
EXTT9=
EXTT10=
EXTT11=
PLAYORDER=
